<svg xmlns="http://www.w3.org/2000/svg" viewBox="0 0 100 100"><defs><style>.a{fill:#373737;}.b{fill:#c1ff99;}.c{fill:#61bf30;}</style></defs><title>vogl-logo</title><path class="a" d="M37.81,0.33c-50.5,40.39,13,86,13,86S94.06,59.44,90.71,28.2c-8,31.85-39.94,45.63-39.94,45.63C6,38.68,29.28,10.22,37.81.33Z"/><path class="b" d="M37.81,0.33c-50.5,40.39,13,86,13,86S94.06,59.44,90.71,28.2c-8,31.85-39.94,45.63-39.94,45.63C6,38.68,29.28,10.22,37.81.33Z"/><path class="c" d="M50.73,92.29c-31.93-25.49-35.55-45.08-36-57.1-0.37-10.29,3.33-20,11-29.06-45.51,39.18,25,94.21,25,94.21s33.06-23.2,39.07-50C86.37,57,73.44,78.83,50.73,92.29Z"/></svg>